<svg xmlns="http://www.w3.org/2000/svg" viewBox="0 0 200 120" fill="#1A1A1A">
  <path d="M12,85 C12,85 25,82 35,65 C45,48 55,28 70,22 C85,16 88,30 82,50 C76,70 60,85 50,90 C40,95 35,88 42,72 C49,56 65,38 80,30 C95,22 105,28 108,42 C111,56 100,78 90,88 C80,98 72,95 78,80 C84,65 100,42 118,30 C136,18 148,22 152,35 C156,48 148,72 140,82 C132,92 125,88 130,75 C135,62 150,40 168,32 C178,28 188,35 190,48 C192,61 182,82 170,92 C158,102 148,95 155,80 C162,65 178,48 192,50" stroke="#1A1A1A" stroke-width="8" stroke-linecap="round" stroke-linejoin="round" fill="none"/>
</svg>
