<?xml version="1.0" encoding="utf-8"?>
<!-- Generator: Adobe Illustrator 26.0.1, SVG Export Plug-In . SVG Version: 6.00 Build 0)  -->
<svg version="1.1" id="Layer_1" xmlns="http://www.w3.org/2000/svg" xmlns:xlink="http://www.w3.org/1999/xlink" x="0px" y="0px"
	 viewBox="0 0 371.46 217.38" style="enable-background:new 0 0 371.46 217.38;" xml:space="preserve">
<style type="text/css">
	.st0{fill:#FFFFFF;}
</style>
<path d="M163.42,99.81c15.13-7.19,25.43-17.32,32.42-30.57c6.43-12.18,11.76-24.94,18.32-37.04c2.94-5.43,7.01-10.7,11.74-14.63
	c10.6-8.82,21.58-7.19,29.9,3.66c5.22,6.81,7.54,14.8,8.77,22.92c-3.45-4.35-6.4-9.28-10.48-12.97c-7.1-6.41-14.5-6.04-19.58,1.93
	c-6.21,9.73-11.26,20.28-15.94,30.86c-7.98,18-18.37,33.96-35.12,44.94c-5.39,3.54-11.41,6.11-16.99,9.38
	c-1.48,0.86-3.42,2.61-3.47,4c-0.55,16.68,0.02,33.3,4.75,49.47c0.78,2.67,2.15,5.25,3.65,7.6c2.88,4.52,6.32,4.57,9.35,0.07
	c1.65-2.45,2.75-5.28,3.95-8.01c5.82-13.2,10.74-26.87,17.57-39.52c10.1-18.73,26.6-30.29,46.74-36.63c3.64-1.14,4.8-2.31,4.08-6.55
	c-2.22-13.11-3.49-26.37-5.54-39.51c-0.65-4.19-2.26-8.32-4.01-12.21c-0.98-2.19-3.15-3.85-4.82-5.79
	c3.09-2.75,7.67-3.01,12.23,0.09c7.09,4.82,11.47,11.89,13.43,19.84c2.73,11.07,4.18,22.46,6.18,33.72
	c0.34,1.94,0.67,3.88,1.07,6.14c12.75-0.26,24.77,1.67,36.35,6.39c26.32,10.73,42.35,34.48,41.47,62.77
	c-0.17,5.52-1.64,11.21-3.62,16.41c-4.57,12-15.81,17.84-28.25,14.31c-6.03-1.71-10.38-5.27-16.85-9.69
	c0.22-0.44,0.86-0.17,1.28-0.17c4.05,0.69,8.17,2.26,12.12,1.89c9.4-0.88,16.47-9.23,17.57-19.53c2.35-21.99-9.46-40.97-31.04-49.87
	c-9.11-3.76-19.94-5.47-27.1-4.13c4.64,24.08,7.51,48.71,23.74,68.78c7.39,9.14,16.14,15.98,28.74,15.23
	c3.07-0.18,6.1-1.16,9.18-1.77c-10.85,12.24-32.91,12.78-46.65,1.2c-11.91-10.03-18.81-23.22-22.78-37.87
	c-3.64-13.43-6.23-27.13-9.29-40.71c-0.14-0.62-0.4-1.2-0.76-2.24c-8.36,1.96-15.5,5.97-22.23,10.84
	c-13.59,9.85-20.23,24.28-26.06,39.31c-3.12,8.04-6.28,16.1-10.14,23.79c-3.34,6.64-8.27,12.23-15.86,14.33
	c-10.02,2.77-19.94-2-25.83-12.27c-6.29-10.96-8.08-23.12-9.04-35.42c-0.7-8.94-0.97-17.92-1.45-27.17
	c-10.5,2.34-21.01,4.57-31.43,7.16c-1.31,0.33-2.45,2.49-3.12,4.05c-6.95,16.25-15.11,31.84-25.55,46.13
	c-7.57,10.35-16.34,19.71-29.09,23.31c-13.61,3.84-26.74,2.58-36.45-9.17c-9.78-11.83-9.54-25.15-3.32-38.42
	c6.6-14.07,18.95-21.89,32.54-28.07c14.81-6.73,30.65-9.73,46.5-12.5c3.65-0.64,4.96-2.4,6.16-5.29
	c8.26-19.92,16.13-40.03,25.12-59.61c4.32-9.42,10.38-18.16,16.55-26.55c2.79-3.8,7.39-6.89,11.82-8.73
	c7.9-3.28,15.77,1.06,16.48,9.74c0.72,8.8-0.37,17.83-1.43,26.66C168.14,68.94,165.75,83.68,163.42,99.81z M91.1,136.25
	c-17.6,3.81-33.98,7.65-48.12,17.64c-5.54,3.92-10.05,8.78-11.99,15.46c-1.83,6.26-1.29,12.22,3.66,17.07
	c4.72,4.62,10.51,5.23,16.13,2.61c4.41-2.06,8.81-4.85,12.18-8.31C75.12,168.18,83.23,152.98,91.1,136.25z M120.63,112.7
	c5.18-1.2,9.5-2.14,13.79-3.2c10.92-2.68,10.91-2.7,12.31-13.51c0.02-0.16,0.05-0.33,0.07-0.49c2.41-18.37,4.81-36.74,7.41-56.57
	C139.17,62.45,130.57,87.38,120.63,112.7z"/>
<path class="st0" d="M91.1,136.25c-7.88,16.73-15.99,31.94-28.14,44.46c-3.37,3.47-7.77,6.25-12.18,8.31
	c-5.62,2.63-11.41,2.02-16.13-2.61c-4.95-4.84-5.48-10.8-3.66-17.07c1.95-6.67,6.45-11.54,11.99-15.46
	C57.12,143.9,73.51,140.05,91.1,136.25z"/>
<path class="st0" d="M120.63,112.7c9.94-25.32,18.54-50.26,33.59-73.77c-2.6,19.84-5,38.21-7.41,56.57
	c-0.02,0.16-0.05,0.33-0.07,0.49c-1.4,10.8-1.4,10.82-12.31,13.51C130.13,110.56,125.81,111.51,120.63,112.7z"/>
</svg>
